<svg xmlns="http://www.w3.org/2000/svg" viewBox="0 0 512 512" role="img" aria-label="WarehouseDB">
  <defs>
    <linearGradient id="bg" x1="8%" y1="8%" x2="92%" y2="92%">
      <stop offset="0%" stop-color="#332d23"/>
      <stop offset="100%" stop-color="#15130f"/>
    </linearGradient>
  </defs>
  <rect width="512" height="512" rx="112" fill="url(#bg)"/>
  <g transform="translate(106 106) scale(12.5)" fill="none" stroke="#ffffff" stroke-width="2.56" stroke-linecap="round" stroke-linejoin="round">
    <path d="M22 8.35V20a2 2 0 0 1-2 2H4a2 2 0 0 1-2-2V8.35A2 2 0 0 1 3.26 6.5l8-3.2a2 2 0 0 1 1.48 0l8 3.2A2 2 0 0 1 22 8.35Z"/>
    <path d="M6 18h12"/>
    <path d="M6 14h12"/>
    <rect width="12" height="12" x="6" y="10"/>
  </g>
</svg>
